<mxfile host="www.draw.io" modified="2019-12-19T11:57:15.241Z" agent="Mozilla/5.0 (X11; Linux x86_64) AppleWebKit/537.36 (KHTML, like Gecko) Chrome/77.0.3865.75 Safari/537.36" etag="26fiRwJxIqpDaEFGCqaO" version="12.4.3" type="github" pages="1">
  <diagram id="-egKOoqW_wiuYjCBnDJs" name="Page-1">
    <mxGraphModel dx="803" dy="465" grid="1" gridSize="10" guides="1" tooltips="1" connect="1" arrows="1" fold="1" page="1" pageScale="1" pageWidth="827" pageHeight="1169" math="0" shadow="0">
      <root>
        <mxCell id="0"/>
        <mxCell id="1" parent="0"/>
        <mxCell id="1hKoh-VqlVQTWxtnn5pZ-3" value="" style="edgeStyle=orthogonalEdgeStyle;rounded=0;orthogonalLoop=1;jettySize=auto;html=1;" edge="1" parent="1" source="1hKoh-VqlVQTWxtnn5pZ-1" target="1hKoh-VqlVQTWxtnn5pZ-2">
          <mxGeometry relative="1" as="geometry"/>
        </mxCell>
        <mxCell id="1hKoh-VqlVQTWxtnn5pZ-1" value="&lt;font style=&quot;font-size: 18px&quot;&gt;预测文件&lt;br&gt;（图像）&lt;/font&gt;" style="rounded=0;whiteSpace=wrap;html=1;" vertex="1" parent="1">
          <mxGeometry x="150" y="130" width="120" height="60" as="geometry"/>
        </mxCell>
        <mxCell id="1hKoh-VqlVQTWxtnn5pZ-5" value="" style="edgeStyle=orthogonalEdgeStyle;rounded=0;orthogonalLoop=1;jettySize=auto;html=1;" edge="1" parent="1" source="1hKoh-VqlVQTWxtnn5pZ-2" target="1hKoh-VqlVQTWxtnn5pZ-4">
          <mxGeometry relative="1" as="geometry"/>
        </mxCell>
        <mxCell id="1hKoh-VqlVQTWxtnn5pZ-2" value="&lt;font style=&quot;font-size: 18px&quot;&gt;Jar包&lt;br&gt;（数据预处理）&lt;/font&gt;" style="rounded=0;whiteSpace=wrap;html=1;fontSize=15;" vertex="1" parent="1">
          <mxGeometry x="340" y="130" width="130" height="60" as="geometry"/>
        </mxCell>
        <mxCell id="1hKoh-VqlVQTWxtnn5pZ-9" value="" style="edgeStyle=orthogonalEdgeStyle;rounded=0;orthogonalLoop=1;jettySize=auto;html=1;" edge="1" parent="1" source="1hKoh-VqlVQTWxtnn5pZ-4" target="1hKoh-VqlVQTWxtnn5pZ-8">
          <mxGeometry relative="1" as="geometry"/>
        </mxCell>
        <mxCell id="1hKoh-VqlVQTWxtnn5pZ-4" value="&lt;font style=&quot;font-size: 18px&quot;&gt;TensorFlow&lt;br&gt;Serving&lt;/font&gt;" style="rounded=0;whiteSpace=wrap;html=1;" vertex="1" parent="1">
          <mxGeometry x="550" y="130" width="120" height="60" as="geometry"/>
        </mxCell>
        <mxCell id="1hKoh-VqlVQTWxtnn5pZ-8" value="&lt;font style=&quot;font-size: 18px&quot;&gt;模型输出&lt;br&gt;（预测结果）&lt;/font&gt;" style="rounded=0;whiteSpace=wrap;html=1;" vertex="1" parent="1">
          <mxGeometry x="550" y="270" width="120" height="60" as="geometry"/>
        </mxCell>
        <mxCell id="1hKoh-VqlVQTWxtnn5pZ-7" value="" style="edgeStyle=orthogonalEdgeStyle;rounded=0;orthogonalLoop=1;jettySize=auto;html=1;" edge="1" parent="1" source="1hKoh-VqlVQTWxtnn5pZ-6" target="1hKoh-VqlVQTWxtnn5pZ-4">
          <mxGeometry relative="1" as="geometry"/>
        </mxCell>
        <mxCell id="1hKoh-VqlVQTWxtnn5pZ-6" value="&lt;font style=&quot;font-size: 18px&quot;&gt;Model&lt;br&gt;（在线模型）&lt;/font&gt;" style="rounded=0;whiteSpace=wrap;html=1;" vertex="1" parent="1">
          <mxGeometry x="550" y="10" width="120" height="60" as="geometry"/>
        </mxCell>
      </root>
    </mxGraphModel>
  </diagram>
</mxfile>
